<?xml version="1.0" standalone="no"?><!-- Generator: Gravit.io --><svg xmlns="http://www.w3.org/2000/svg" xmlns:xlink="http://www.w3.org/1999/xlink" style="isolation:isolate" viewBox="0 0 1290.667 320" width="1290.667" height="320"><defs><clipPath id="_clipPath_Lml11xJfMQa20XZaObMrJN8MMYTuvs9p"><rect width="1290.667" height="320"/></clipPath></defs><g clip-path="url(#_clipPath_Lml11xJfMQa20XZaObMrJN8MMYTuvs9p)"><rect width="1290.667" height="320" style="fill:rgb(41,42,45)"/><path d=" M 1091.066 215.997 L 1091.066 220.67 L 1055.292 220.67 L 1055.292 215.997 L 1055.292 215.997 Q 1061.093 213.419 1066.894 212.129 L 1066.894 212.129 L 1107.663 105.937 L 1112.336 105.937 L 1153.105 212.129 L 1153.105 212.129 Q 1156.328 212.774 1159.47 213.58 L 1159.47 213.58 L 1159.47 213.58 Q 1162.613 214.385 1165.352 215.997 L 1165.352 215.997 L 1165.352 220.67 L 1124.1 220.67 L 1124.1 215.997 L 1124.1 215.997 Q 1127.322 214.708 1130.706 213.741 L 1130.706 213.741 L 1130.706 213.741 Q 1134.09 212.774 1137.313 212.129 L 1137.313 212.129 L 1126.356 182.64 L 1087.843 182.64 L 1077.207 212.129 L 1077.207 212.129 Q 1083.975 213.096 1091.066 215.997 L 1091.066 215.997 Z  M 1103.473 140.421 L 1091.066 174.261 L 1123.616 174.261 L 1110.886 140.099 L 1107.824 126.241 L 1107.502 126.241 L 1103.473 140.421 Z  M 1226.102 152.185 L 1204.671 152.185 L 1204.671 152.185 Q 1202.898 153.151 1200.239 156.133 L 1200.239 156.133 L 1200.239 156.133 Q 1197.58 159.114 1195.485 164.915 L 1195.485 164.915 L 1195.485 212.774 L 1195.485 212.774 Q 1198.708 213.096 1201.931 213.983 L 1201.931 213.983 L 1201.931 213.983 Q 1205.154 214.869 1208.377 216.641 L 1208.377 216.641 L 1208.377 220.67 L 1170.347 220.67 L 1170.347 216.641 L 1170.347 216.641 Q 1173.248 215.03 1175.826 214.224 L 1175.826 214.224 L 1175.826 214.224 Q 1178.404 213.419 1180.983 212.774 L 1180.983 212.774 L 1180.983 149.445 L 1170.347 148.156 L 1170.347 143.966 L 1170.347 143.966 Q 1175.504 141.71 1180.983 140.341 L 1180.983 140.341 L 1180.983 140.341 Q 1186.462 138.971 1191.457 138.165 L 1191.457 138.165 L 1195.485 138.165 L 1195.485 155.246 L 1196.13 155.246 L 1196.13 155.246 Q 1197.58 152.023 1200.239 148.801 L 1200.239 148.801 L 1200.239 148.801 Q 1202.898 145.578 1206.363 143 L 1206.363 143 L 1206.363 143 Q 1209.827 140.421 1213.936 139.052 L 1213.936 139.052 L 1213.936 139.052 Q 1218.045 137.682 1222.396 138.165 L 1222.396 138.165 L 1222.396 138.165 Q 1223.524 140.26 1224.41 142.758 L 1224.41 142.758 L 1224.41 142.758 Q 1225.297 145.256 1226.102 147.995 L 1226.102 147.995 L 1226.102 152.185 Z  M 1229.648 148.478 L 1229.648 144.149 L 1229.648 144.149 Q 1235.771 140.153 1242.539 138.488 L 1242.539 138.488 L 1242.539 124.79 L 1242.539 124.79 Q 1244.634 123.018 1247.454 121.648 L 1247.454 121.648 L 1247.454 121.648 Q 1250.274 120.279 1253.013 118.989 L 1253.013 118.989 L 1257.042 118.989 L 1257.042 140.099 L 1281.213 140.099 L 1281.213 148.478 L 1257.042 148.478 L 1257.042 194.976 L 1257.042 194.976 Q 1257.042 204.596 1260.103 208.604 L 1260.103 208.604 L 1260.103 208.604 Q 1263.165 212.613 1269.289 212.613 L 1269.289 212.613 L 1269.289 212.613 Q 1272.189 212.613 1276.54 212.21 L 1276.54 212.21 L 1276.54 212.21 Q 1280.891 211.807 1283.952 210.679 L 1283.952 210.679 L 1285.08 213.096 L 1285.08 213.096 Q 1283.791 214.547 1281.455 216.158 L 1281.455 216.158 L 1281.455 216.158 Q 1279.118 217.769 1276.137 219.22 L 1276.137 219.22 L 1276.137 219.22 Q 1273.156 220.67 1269.611 221.637 L 1269.611 221.637 L 1269.611 221.637 Q 1266.066 222.604 1262.359 222.604 L 1262.359 222.604 L 1262.359 222.604 Q 1252.691 222.604 1247.615 217.149 L 1247.615 217.149 L 1247.615 217.149 Q 1242.539 211.693 1242.539 199.5 L 1242.539 199.5 L 1242.539 148.478 L 1229.648 148.478 Z  M 451.493 185.863 L 458.1 209.551 L 458.1 209.551 Q 460.034 211.485 463.095 212.855 L 463.095 212.855 L 463.095 212.855 Q 466.157 214.224 472.28 214.224 L 472.28 214.224 L 472.28 214.224 Q 477.437 214.224 481.949 212.855 L 481.949 212.855 L 481.949 212.855 Q 486.461 211.485 489.764 208.826 L 489.764 208.826 L 489.764 208.826 Q 493.068 206.167 495.001 202.38 L 495.001 202.38 L 495.001 202.38 Q 496.935 198.593 496.935 193.759 L 496.935 193.759 L 496.935 193.759 Q 496.935 187.314 492.987 182.963 L 492.987 182.963 L 492.987 182.963 Q 489.039 178.612 483.158 175.228 L 483.158 175.228 L 483.158 175.228 Q 477.276 171.844 470.347 168.621 L 470.347 168.621 L 470.347 168.621 Q 463.418 165.398 457.536 160.967 L 457.536 160.967 L 457.536 160.967 Q 451.654 156.535 447.706 150.331 L 447.706 150.331 L 447.706 150.331 Q 443.758 144.128 443.758 134.781 L 443.758 134.781 L 443.758 134.781 Q 443.758 128.013 446.175 122.696 L 446.175 122.696 L 446.175 122.696 Q 448.593 117.378 453.024 113.672 L 453.024 113.672 L 453.024 113.672 Q 457.455 109.965 463.579 107.951 L 463.579 107.951 L 463.579 107.951 Q 469.702 105.937 477.276 105.937 L 477.276 105.937 L 477.276 105.937 Q 487.106 105.937 495.243 107.468 L 495.243 107.468 L 495.243 107.468 Q 503.381 108.999 508.054 111.255 L 508.054 111.255 L 508.054 111.255 Q 508.054 113.994 507.651 117.62 L 507.651 117.62 L 507.651 117.62 Q 507.248 121.245 506.684 125.113 L 506.684 125.113 L 506.684 125.113 Q 506.12 128.98 505.476 132.606 L 505.476 132.606 L 505.476 132.606 Q 504.831 136.232 504.187 138.971 L 504.187 138.971 L 499.997 138.971 L 493.551 116.895 L 493.551 116.895 Q 490.651 115.605 486.219 114.961 L 486.219 114.961 L 486.219 114.961 Q 481.788 114.316 476.792 114.316 L 476.792 114.316 L 476.792 114.316 Q 468.574 114.316 463.579 118.909 L 463.579 118.909 L 463.579 118.909 Q 458.583 123.501 458.583 131.72 L 458.583 131.72 L 458.583 131.72 Q 458.583 138.326 462.531 142.838 L 462.531 142.838 L 462.531 142.838 Q 466.479 147.35 472.442 150.895 L 472.442 150.895 L 472.442 150.895 Q 478.404 154.441 485.252 157.744 L 485.252 157.744 L 485.252 157.744 Q 492.101 161.047 498.063 165.398 L 498.063 165.398 L 498.063 165.398 Q 504.025 169.749 507.973 175.711 L 507.973 175.711 L 507.973 175.711 Q 511.921 181.674 511.921 190.536 L 511.921 190.536 L 511.921 190.536 Q 511.921 197.788 509.263 203.75 L 509.263 203.75 L 509.263 203.75 Q 506.604 209.712 501.608 213.902 L 501.608 213.902 L 501.608 213.902 Q 496.613 218.092 489.362 220.348 L 489.362 220.348 L 489.362 220.348 Q 482.11 222.604 472.925 222.604 L 472.925 222.604 L 472.925 222.604 Q 462.773 222.604 454.716 220.187 L 454.716 220.187 L 454.716 220.187 Q 446.659 217.769 443.275 215.03 L 443.275 215.03 L 443.275 215.03 Q 443.436 212.291 443.839 208.423 L 443.839 208.423 L 443.839 208.423 Q 444.242 204.556 444.806 200.447 L 444.806 200.447 L 444.806 200.447 Q 445.37 196.338 446.014 192.47 L 446.014 192.47 L 446.014 192.47 Q 446.659 188.603 447.303 185.863 L 447.303 185.863 L 451.493 185.863 Z  M 580.89 206.328 L 580.246 206.328 L 580.246 206.328 Q 577.99 212.774 572.35 217.689 L 572.35 217.689 L 572.35 217.689 Q 566.71 222.604 558.008 222.604 L 558.008 222.604 L 558.008 222.604 Q 542.538 222.604 534.723 212.371 L 534.723 212.371 L 534.723 212.371 Q 526.908 202.139 526.908 180.868 L 526.908 180.868 L 526.908 180.868 Q 526.908 159.919 537.301 149.284 L 537.301 149.284 L 537.301 149.284 Q 547.695 138.649 567.193 138.649 L 567.193 138.649 L 567.193 138.649 Q 575.895 138.649 583.791 140.26 L 583.791 140.26 L 583.791 140.26 Q 591.687 141.872 595.393 143.644 L 595.393 143.644 L 595.393 245.002 L 595.393 245.002 Q 598.132 245.486 600.711 246.372 L 600.711 246.372 L 600.711 246.372 Q 603.289 247.258 606.028 248.87 L 606.028 248.87 L 606.028 252.898 L 570.255 252.898 L 570.255 248.87 L 570.255 248.87 Q 575.25 246.292 580.89 245.002 L 580.89 245.002 L 580.89 206.328 Z  M 561.875 212.613 L 561.875 212.613 L 561.875 212.613 Q 569.771 212.613 574.364 207.617 L 574.364 207.617 L 574.364 207.617 Q 578.956 202.622 580.89 194.243 L 580.89 194.243 L 580.89 147.995 L 580.89 147.995 Q 577.99 147.028 574.042 146.384 L 574.042 146.384 L 574.042 146.384 Q 570.094 145.739 564.937 145.739 L 564.937 145.739 L 564.937 145.739 Q 554.141 145.739 548.259 154.118 L 548.259 154.118 L 548.259 154.118 Q 542.377 162.498 542.377 180.546 L 542.377 180.546 L 542.377 180.546 Q 542.377 187.314 543.344 193.115 L 543.344 193.115 L 543.344 193.115 Q 544.311 198.916 546.647 203.267 L 546.647 203.267 L 546.647 203.267 Q 548.984 207.617 552.69 210.115 L 552.69 210.115 L 552.69 210.115 Q 556.397 212.613 561.875 212.613 Z  M 621.014 188.764 L 621.014 188.764 L 621.014 188.764 Q 621.014 178.612 621.498 168.863 L 621.498 168.863 L 621.498 168.863 Q 621.981 159.114 621.981 149.445 L 621.981 149.445 L 611.346 148.156 L 611.346 143.966 L 611.346 143.966 Q 616.502 142.033 621.901 140.582 L 621.901 140.582 L 621.901 140.582 Q 627.299 139.132 632.456 138.165 L 632.456 138.165 L 636.484 138.165 L 636.484 138.165 Q 636.484 150.251 636.001 162.175 L 636.001 162.175 L 636.001 162.175 Q 635.517 174.1 635.517 185.863 L 635.517 185.863 L 635.517 185.863 Q 635.517 192.148 636.242 197.143 L 636.242 197.143 L 636.242 197.143 Q 636.968 202.139 638.821 205.523 L 638.821 205.523 L 638.821 205.523 Q 640.674 208.907 643.897 210.76 L 643.897 210.76 L 643.897 210.76 Q 647.119 212.613 652.115 212.613 L 652.115 212.613 L 652.115 212.613 Q 659.366 212.613 664.281 207.376 L 664.281 207.376 L 664.281 207.376 Q 669.196 202.139 671.935 193.759 L 671.935 193.759 L 671.935 149.445 L 661.461 148.156 L 661.461 143.966 L 661.461 143.966 Q 666.456 142.033 671.855 140.582 L 671.855 140.582 L 671.855 140.582 Q 677.253 139.132 682.41 138.165 L 682.41 138.165 L 686.438 138.165 L 686.438 211.485 L 697.073 212.774 L 697.073 216.158 L 697.073 216.158 Q 692.4 218.253 687.647 219.864 L 687.647 219.864 L 687.647 219.864 Q 682.893 221.476 677.736 222.281 L 677.736 222.281 L 673.708 222.281 L 672.58 203.105 L 671.935 203.105 L 671.935 203.105 Q 671.13 206.489 669.115 209.954 L 669.115 209.954 L 669.115 209.954 Q 667.101 213.419 663.878 216.239 L 663.878 216.239 L 663.878 216.239 Q 660.655 219.059 656.546 220.831 L 656.546 220.831 L 656.546 220.831 Q 652.437 222.604 647.603 222.604 L 647.603 222.604 L 647.603 222.604 Q 641.157 222.604 636.242 221.073 L 636.242 221.073 L 636.242 221.073 Q 631.328 219.542 627.944 215.675 L 627.944 215.675 L 627.944 215.675 Q 624.56 211.807 622.787 205.281 L 622.787 205.281 L 622.787 205.281 Q 621.014 198.755 621.014 188.764 Z  M 743.482 216.641 L 743.482 220.67 L 707.709 220.67 L 707.709 216.641 L 707.709 216.641 Q 710.126 215.352 712.704 214.466 L 712.704 214.466 L 712.704 214.466 Q 715.283 213.58 718.344 212.774 L 718.344 212.774 L 718.344 149.445 L 707.709 148.156 L 707.709 143.966 L 707.709 143.966 Q 712.382 142.033 717.861 140.582 L 717.861 140.582 L 717.861 140.582 Q 723.34 139.132 728.818 138.165 L 728.818 138.165 L 732.847 138.165 L 732.847 212.774 L 732.847 212.774 Q 736.07 213.58 738.648 214.466 L 738.648 214.466 L 738.648 214.466 Q 741.226 215.352 743.482 216.641 L 743.482 216.641 Z  M 715.283 112.705 L 715.283 112.705 L 715.283 112.705 Q 715.283 108.354 718.102 105.776 L 718.102 105.776 L 718.102 105.776 Q 720.922 103.197 725.596 103.197 L 725.596 103.197 L 725.596 103.197 Q 730.269 103.197 733.008 105.776 L 733.008 105.776 L 733.008 105.776 Q 735.748 108.354 735.748 112.705 L 735.748 112.705 L 735.748 112.705 Q 735.748 117.056 733.008 119.553 L 733.008 119.553 L 733.008 119.553 Q 730.269 122.051 725.596 122.051 L 725.596 122.051 L 725.596 122.051 Q 720.922 122.051 718.102 119.553 L 718.102 119.553 L 718.102 119.553 Q 715.283 117.056 715.283 112.705 Z  M 810.356 152.185 L 788.924 152.185 L 788.924 152.185 Q 787.152 153.151 784.493 156.133 L 784.493 156.133 L 784.493 156.133 Q 781.834 159.114 779.739 164.915 L 779.739 164.915 L 779.739 212.774 L 779.739 212.774 Q 782.962 213.096 786.185 213.983 L 786.185 213.983 L 786.185 213.983 Q 789.408 214.869 792.631 216.641 L 792.631 216.641 L 792.631 220.67 L 754.601 220.67 L 754.601 216.641 L 754.601 216.641 Q 757.502 215.03 760.08 214.224 L 760.08 214.224 L 760.08 214.224 Q 762.658 213.419 765.237 212.774 L 765.237 212.774 L 765.237 149.445 L 754.601 148.156 L 754.601 143.966 L 754.601 143.966 Q 759.758 141.71 765.237 140.341 L 765.237 140.341 L 765.237 140.341 Q 770.715 138.971 775.711 138.165 L 775.711 138.165 L 779.739 138.165 L 779.739 155.246 L 780.384 155.246 L 780.384 155.246 Q 781.834 152.023 784.493 148.801 L 784.493 148.801 L 784.493 148.801 Q 787.152 145.578 790.616 143 L 790.616 143 L 790.616 143 Q 794.081 140.421 798.19 139.052 L 798.19 139.052 L 798.19 139.052 Q 802.299 137.682 806.65 138.165 L 806.65 138.165 L 806.65 138.165 Q 807.778 140.26 808.664 142.758 L 808.664 142.758 L 808.664 142.758 Q 809.551 145.256 810.356 147.995 L 810.356 147.995 L 810.356 152.185 Z  M 878.197 207.134 L 880.292 209.39 L 880.292 209.39 Q 877.391 215.03 870.865 218.817 L 870.865 218.817 L 870.865 218.817 Q 864.339 222.604 855.637 222.604 L 855.637 222.604 L 855.637 222.604 Q 846.13 222.604 839.12 219.623 L 839.12 219.623 L 839.12 219.623 Q 832.11 216.641 827.437 211.082 L 827.437 211.082 L 827.437 211.082 Q 822.764 205.523 820.428 197.707 L 820.428 197.707 L 820.428 197.707 Q 818.091 189.892 818.091 180.384 L 818.091 180.384 L 818.091 180.384 Q 818.091 159.919 828.082 149.042 L 828.082 149.042 L 828.082 149.042 Q 838.073 138.165 855.315 138.165 L 855.315 138.165 L 855.315 138.165 Q 863.211 138.165 869.415 139.535 L 869.415 139.535 L 869.415 139.535 Q 875.619 140.905 879.97 143.161 L 879.97 143.161 L 879.97 143.161 Q 879.486 148.478 878.197 155.085 L 878.197 155.085 L 878.197 155.085 Q 876.908 161.692 874.974 166.043 L 874.974 166.043 L 870.623 166.043 L 863.855 146.867 L 863.855 146.867 Q 862.727 146.061 861.277 145.658 L 861.277 145.658 L 861.277 145.658 Q 859.827 145.256 856.443 145.256 L 856.443 145.256 L 856.443 145.256 Q 845.485 145.256 839.523 153.232 L 839.523 153.232 L 839.523 153.232 Q 833.561 161.209 833.561 180.223 L 833.561 180.223 L 833.561 180.223 Q 833.561 186.347 835.253 192.148 L 835.253 192.148 L 835.253 192.148 Q 836.945 197.949 840.409 202.541 L 840.409 202.541 L 840.409 202.541 Q 843.874 207.134 849.111 209.873 L 849.111 209.873 L 849.111 209.873 Q 854.348 212.613 861.277 212.613 L 861.277 212.613 L 861.277 212.613 Q 866.917 212.613 871.107 211.001 L 871.107 211.001 L 871.107 211.001 Q 875.296 209.39 878.197 207.134 L 878.197 207.134 Z  M 928.957 216.641 L 928.957 220.67 L 893.183 220.67 L 893.183 216.641 L 893.183 216.641 Q 898.501 214.063 903.819 212.774 L 903.819 212.774 L 903.819 110.771 L 891.572 109.482 L 891.572 105.292 L 891.572 105.292 Q 895.761 103.359 902.046 101.908 L 902.046 101.908 L 902.046 101.908 Q 908.331 100.458 914.293 99.491 L 914.293 99.491 L 918.321 99.491 L 918.321 212.774 L 918.321 212.774 Q 923.639 214.063 928.957 216.641 L 928.957 216.641 Z  M 1004.693 206.812 L 1006.949 209.39 L 1006.949 209.39 Q 1005.66 212.129 1002.921 214.547 L 1002.921 214.547 L 1002.921 214.547 Q 1000.181 216.964 996.636 218.736 L 996.636 218.736 L 996.636 218.736 Q 993.091 220.509 988.902 221.556 L 988.902 221.556 L 988.902 221.556 Q 984.712 222.604 980.361 222.604 L 980.361 222.604 L 980.361 222.604 Q 970.854 222.604 963.602 219.623 L 963.602 219.623 L 963.602 219.623 Q 956.351 216.641 951.517 211.082 L 951.517 211.082 L 951.517 211.082 Q 946.682 205.523 944.185 197.788 L 944.185 197.788 L 944.185 197.788 Q 941.687 190.053 941.687 180.384 L 941.687 180.384 L 941.687 180.384 Q 941.687 159.758 951.194 148.962 L 951.194 148.962 L 951.194 148.962 Q 960.702 138.165 978.105 138.165 L 978.105 138.165 L 978.105 138.165 Q 983.745 138.165 989.224 139.696 L 989.224 139.696 L 989.224 139.696 Q 994.703 141.227 998.973 144.772 L 998.973 144.772 L 998.973 144.772 Q 1003.243 148.317 1005.902 154.199 L 1005.902 154.199 L 1005.902 154.199 Q 1008.561 160.081 1008.561 168.782 L 1008.561 168.782 L 1008.561 168.782 Q 1008.561 171.522 1008.319 174.342 L 1008.319 174.342 L 1008.319 174.342 Q 1008.077 177.162 1007.433 180.384 L 1007.433 180.384 L 957.157 180.384 L 957.157 180.384 Q 957.157 187.152 958.849 193.034 L 958.849 193.034 L 958.849 193.034 Q 960.541 198.916 963.925 203.267 L 963.925 203.267 L 963.925 203.267 Q 967.309 207.617 972.465 210.115 L 972.465 210.115 L 972.465 210.115 Q 977.622 212.613 984.551 212.613 L 984.551 212.613 L 984.551 212.613 Q 990.191 212.613 995.992 211.001 L 995.992 211.001 L 995.992 211.001 Q 1001.793 209.39 1004.693 206.812 L 1004.693 206.812 Z  M 977.46 145.256 L 977.46 145.256 L 977.46 145.256 Q 968.275 145.256 963.441 151.459 L 963.441 151.459 L 963.441 151.459 Q 958.607 157.663 957.64 173.294 L 957.64 173.294 L 993.091 173.294 L 993.091 173.294 Q 993.252 171.844 993.333 170.474 L 993.333 170.474 L 993.333 170.474 Q 993.413 169.105 993.413 167.815 L 993.413 167.815 L 993.413 167.815 Q 993.413 157.502 989.546 151.379 L 989.546 151.379 L 989.546 151.379 Q 985.679 145.256 977.46 145.256 Z " fill-rule="evenodd" fill="rgb(255,255,255)"/><path d=" M 60.445 21.88 L 206.094 21.88 C 222.163 21.88 237.484 28.233 248.789 39.631 C 260.187 50.935 266.539 66.35 266.539 82.326 L 266.539 227.974 C 266.539 244.043 260.187 259.364 248.789 270.762 C 237.484 282.067 222.163 288.419 206.094 288.419 L 60.445 288.419 C 44.377 288.419 29.055 282.067 17.751 270.762 C 6.353 259.364 0 244.043 0 227.974 L 0 82.326 C 0 66.35 6.353 50.935 17.751 39.631 C 29.055 28.233 44.377 21.88 60.445 21.88 Z  M 60.445 30.662 L 206.094 30.662 C 219.827 30.662 232.907 36.081 242.623 45.797 C 252.339 55.513 257.757 68.686 257.757 82.326 L 257.757 227.974 C 257.757 241.707 252.339 254.88 242.623 264.503 C 232.907 274.219 219.827 279.638 206.094 279.638 L 60.445 279.638 C 46.712 279.638 33.633 274.219 23.917 264.503 C 14.2 254.88 8.782 241.707 8.782 227.974 L 8.782 82.326 C 8.782 68.686 14.2 55.513 23.917 45.797 C 33.633 36.081 46.712 30.662 60.445 30.662 Z " fill-rule="evenodd" fill="rgb(255,255,255)"/><path d=" M 85.099 35.36 L 229.837 35.36 C 264.404 35.36 292.468 63.424 292.468 97.991 L 292.468 242.729 C 292.468 277.296 264.404 305.36 229.837 305.36 L 85.099 305.36 C 50.532 305.36 22.468 277.296 22.468 242.729 L 22.468 97.991 C 22.468 63.424 50.532 35.36 85.099 35.36 Z  M 112.202 208.506 L 123.736 249.861 Q 127.112 253.237 132.457 255.628 Q 137.802 258.019 148.492 258.019 Q 157.495 258.019 165.372 255.628 Q 173.249 253.237 179.016 248.595 Q 184.783 243.953 188.159 237.342 Q 191.535 230.731 191.535 222.291 Q 191.535 211.038 184.642 203.442 Q 177.75 195.847 167.482 189.939 Q 157.213 184.031 145.116 178.405 Q 133.02 172.778 122.751 165.042 Q 112.483 157.305 105.59 146.474 Q 98.698 135.643 98.698 119.327 Q 98.698 107.511 102.918 98.227 Q 107.138 88.944 114.874 82.473 Q 122.611 76.003 133.301 72.486 Q 143.991 68.97 157.213 68.97 Q 174.374 68.97 188.581 71.642 Q 202.788 74.315 210.946 78.253 Q 210.946 83.036 210.243 89.366 Q 209.54 95.696 208.555 102.447 Q 207.57 109.199 206.445 115.529 Q 205.32 121.859 204.194 126.641 L 196.88 126.641 L 185.627 88.1 Q 180.563 85.849 172.827 84.724 Q 165.09 83.599 156.369 83.599 Q 142.022 83.599 133.301 91.616 Q 124.58 99.634 124.58 113.982 Q 124.58 125.516 131.472 133.393 Q 138.365 141.27 148.774 147.459 Q 159.183 153.648 171.139 159.415 Q 183.095 165.182 193.504 172.778 Q 203.913 180.374 210.805 190.783 Q 217.698 201.192 217.698 216.665 Q 217.698 229.324 213.056 239.733 Q 208.414 250.142 199.693 257.457 Q 190.972 264.771 178.313 268.709 Q 165.653 272.648 149.618 272.648 Q 131.894 272.648 117.828 268.428 Q 103.762 264.208 97.854 259.426 Q 98.135 254.643 98.839 247.892 Q 99.542 241.14 100.527 233.966 Q 101.511 226.792 102.637 220.041 Q 103.762 213.289 104.887 208.506 L 112.202 208.506 Z " fill-rule="evenodd" fill="rgb(255,255,255)"/><rect x="359.737" y="0" width="8.057" height="320" transform="matrix(1,0,0,1,0,0)" fill="rgb(255,255,255)"/></g></svg>